<svg xmlns="http://www.w3.org/2000/svg" style="display:none">
  <symbol id="brand" viewBox="0 0 24 24" fill="none" stroke="currentColor" stroke-width="1.8">
    <circle cx="12" cy="12" r="8"/><path d="M12 1.5v4M12 18.5v4M1.5 12h4M18.5 12h4"/>
    <circle cx="12" cy="12" r="2.4" fill="currentColor" stroke="none"/>
  </symbol>
  <symbol id="dashboard" viewBox="0 0 24 24" fill="none" stroke="currentColor" stroke-width="1.8">
    <rect x="3" y="3" width="7" height="9"/><rect x="14" y="3" width="7" height="5"/>
    <rect x="14" y="12" width="7" height="9"/><rect x="3" y="16" width="7" height="5"/>
  </symbol>
  <symbol id="lists" viewBox="0 0 24 24" fill="none" stroke="currentColor" stroke-width="1.8">
    <path d="M4 6h16M4 12h16M4 18h10"/>
  </symbol>
  <symbol id="rules" viewBox="0 0 24 24" fill="none" stroke="currentColor" stroke-width="1.8">
    <path d="M5 4h11l3 3v13H5z"/><path d="M8 11h8M8 15h5"/>
  </symbol>
  <symbol id="policies" viewBox="0 0 24 24" fill="none" stroke="currentColor" stroke-width="1.8">
    <path d="M12 3l7 3v6c0 4-3 7-7 9-4-2-7-5-7-9V6z"/>
  </symbol>
  <symbol id="clients" viewBox="0 0 24 24" fill="none" stroke="currentColor" stroke-width="1.8">
    <circle cx="9" cy="8" r="3"/><path d="M3 19c0-3 3-5 6-5s6 2 6 5"/><circle cx="17" cy="9" r="2"/>
  </symbol>
  <symbol id="rule-tester" viewBox="0 0 24 24" fill="none" stroke="currentColor" stroke-width="1.8">
    <circle cx="10.5" cy="10.5" r="6"/><path d="M15 15l5 5"/>
  </symbol>
  <symbol id="cache" viewBox="0 0 24 24" fill="none" stroke="currentColor" stroke-width="1.8">
    <ellipse cx="12" cy="6" rx="7" ry="3"/><path d="M5 6v12c0 1.7 3.1 3 7 3s7-1.3 7-3V6"/>
    <path d="M5 12c0 1.7 3.1 3 7 3s7-1.3 7-3"/>
  </symbol>
  <symbol id="performance" viewBox="0 0 24 24" fill="none" stroke="currentColor" stroke-width="1.8">
    <path d="M3 17l5-6 4 4 4-7 5 5"/>
  </symbol>
  <symbol id="upstreams" viewBox="0 0 24 24" fill="none" stroke="currentColor" stroke-width="1.8">
    <path d="M12 3v7M12 14v7"/><circle cx="12" cy="12" r="2"/>
    <path d="M5 7l2 2M19 7l-2 2M5 17l2-2M19 17l-2-2"/>
  </symbol>
  <symbol id="settings" viewBox="0 0 24 24" fill="none" stroke="currentColor" stroke-width="1.8">
    <circle cx="12" cy="12" r="3"/>
    <path d="M12 2v3M12 19v3M2 12h3M19 12h3M5 5l2 2M17 17l2 2M19 5l-2 2M7 17l-2 2"/>
  </symbol>
  <symbol id="diagnostics" viewBox="0 0 24 24" fill="none" stroke="currentColor" stroke-width="1.8">
    <path d="M3 12h4l2 5 4-11 2 6h6"/>
  </symbol>
  <symbol id="refresh" viewBox="0 0 24 24" fill="none" stroke="currentColor" stroke-width="2">
    <path d="M20.5 11.5a8.5 8.5 0 1 0-2.5 6.4"/><path d="M20.5 4v7.5H13"/>
  </symbol>
  <symbol id="menu" viewBox="0 0 24 24" fill="none" stroke="currentColor" stroke-width="2">
    <path d="M4 7h16M4 12h16M4 17h16"/>
  </symbol>
  <symbol id="close" viewBox="0 0 24 24" fill="none" stroke="currentColor" stroke-width="2.2">
    <path d="M6 6l12 12M18 6L6 18"/>
  </symbol>
  <symbol id="arrow-right" viewBox="0 0 24 24" fill="none" stroke="currentColor" stroke-width="2.2">
    <path d="M5 12h13M13 6l6 6-6 6"/>
  </symbol>
  <symbol id="theme" viewBox="0 0 24 24" fill="none" stroke="currentColor" stroke-width="1.8">
    <circle cx="12" cy="12" r="4.4"/>
    <path d="M12 2v2.4M12 19.6V22M2 12h2.4M19.6 12H22M4.9 4.9l1.7 1.7M17.4 17.4l1.7 1.7M19.1 4.9l-1.7 1.7M6.6 17.4l-1.7 1.7"/>
  </symbol>
  <symbol id="sign-out" viewBox="0 0 24 24" fill="none" stroke="currentColor" stroke-width="1.8">
    <path d="M14 4h5v16h-5"/><path d="M10 8l-4 4 4 4M6 12h9"/>
  </symbol>
  <symbol id="warning" viewBox="0 0 24 24" fill="none" stroke="currentColor" stroke-width="1.9">
    <circle cx="12" cy="12" r="9"/><path d="M12 7v6M12 16.5v.5"/>
  </symbol>
</svg>
